<mxfile host="app.diagrams.net" agent="Mozilla/5.0 (Windows NT 10.0; Win64; x64) AppleWebKit/537.36 (KHTML, like Gecko) Chrome/131.0.0.0 Safari/537.36" version="24.8.8">
  <diagram id="VhYtMKZ83w2tvJsrg3sf" name="第 1 页">
    <mxGraphModel dx="1841" dy="997" grid="1" gridSize="10" guides="1" tooltips="1" connect="1" arrows="1" fold="1" page="1" pageScale="1" pageWidth="1600" pageHeight="1200" math="0" shadow="0">
      <root>
        <mxCell id="0" />
        <mxCell id="1" parent="0" />
        <mxCell id="uM3loSz1BCQUuEdLPMse-7" value="&lt;span style=&quot;font-size: 15px; font-weight: 400;&quot;&gt;202 Data in Training Set&lt;/span&gt;" style="rounded=1;whiteSpace=wrap;html=1;fontStyle=1" parent="1" vertex="1">
          <mxGeometry x="400" y="280" width="260" height="80" as="geometry" />
        </mxCell>
        <mxCell id="uM3loSz1BCQUuEdLPMse-9" value="CWS and POS" style="rounded=1;whiteSpace=wrap;html=1;fontSize=15;" parent="1" vertex="1">
          <mxGeometry x="400" y="420" width="260" height="80" as="geometry" />
        </mxCell>
        <mxCell id="uM3loSz1BCQUuEdLPMse-10" value="&lt;font style=&quot;font-size: 15px;&quot;&gt;Ba Patterns&lt;/font&gt;" style="rounded=1;whiteSpace=wrap;html=1;fontSize=15;" parent="1" vertex="1">
          <mxGeometry x="400" y="560" width="260" height="80" as="geometry" />
        </mxCell>
        <mxCell id="uM3loSz1BCQUuEdLPMse-11" value="Comparing Four Patterns" style="rounded=1;whiteSpace=wrap;html=1;fontSize=15;" parent="1" vertex="1">
          <mxGeometry x="400" y="700" width="260" height="80" as="geometry" />
        </mxCell>
        <mxCell id="uM3loSz1BCQUuEdLPMse-16" value="" style="endArrow=classic;html=1;rounded=0;exitX=0.5;exitY=1;exitDx=0;exitDy=0;" parent="1" edge="1">
          <mxGeometry width="50" height="50" relative="1" as="geometry">
            <mxPoint x="529.91" y="360" as="sourcePoint" />
            <mxPoint x="529.41" y="420" as="targetPoint" />
          </mxGeometry>
        </mxCell>
        <mxCell id="uM3loSz1BCQUuEdLPMse-18" value="" style="endArrow=classic;html=1;rounded=0;exitX=0.5;exitY=1;exitDx=0;exitDy=0;" parent="1" edge="1">
          <mxGeometry width="50" height="50" relative="1" as="geometry">
            <mxPoint x="530" y="500" as="sourcePoint" />
            <mxPoint x="529.5" y="560" as="targetPoint" />
          </mxGeometry>
        </mxCell>
        <mxCell id="uM3loSz1BCQUuEdLPMse-20" value="" style="endArrow=classic;html=1;rounded=0;exitX=0.5;exitY=1;exitDx=0;exitDy=0;" parent="1" edge="1">
          <mxGeometry width="50" height="50" relative="1" as="geometry">
            <mxPoint x="530" y="640" as="sourcePoint" />
            <mxPoint x="529.5" y="700" as="targetPoint" />
          </mxGeometry>
        </mxCell>
        <mxCell id="uM3loSz1BCQUuEdLPMse-22" value="&lt;font style=&quot;font-size: 18px;&quot;&gt;A total of 202 Ba patterns in the Ba model, with 107 patterns in&amp;nbsp; VDO, 84 patterns in SCS, 6 patterns in VIO, and 5 patterns in SCO&amp;nbsp;&lt;/font&gt;" style="text;html=1;align=center;verticalAlign=middle;whiteSpace=wrap;rounded=0;fontSize=18;" parent="1" vertex="1">
          <mxGeometry x="760" y="560" width="370" height="110" as="geometry" />
        </mxCell>
        <mxCell id="uM3loSz1BCQUuEdLPMse-24" value="&lt;font style=&quot;font-size: 18px;&quot;&gt;Preprocessing via&amp;nbsp;&lt;/font&gt;&lt;span style=&quot;background-color: initial;&quot;&gt;Ba Preprocessing&amp;nbsp;Algorithm&lt;/span&gt;&lt;div&gt;&lt;div style=&quot;font-size: 18px;&quot;&gt;&lt;font style=&quot;font-size: 18px;&quot;&gt;+&lt;/font&gt;&lt;/div&gt;&lt;div style=&quot;font-size: 18px;&quot;&gt;&lt;font style=&quot;font-size: 18px;&quot;&gt;Manually select and sort Ba sentences into VDO, SCS, VIO, SCO patterns&lt;/font&gt;&lt;/div&gt;&lt;/div&gt;" style="text;html=1;align=center;verticalAlign=middle;whiteSpace=wrap;rounded=0;fontSize=18;" parent="1" vertex="1">
          <mxGeometry x="700" y="280" width="490" height="110" as="geometry" />
        </mxCell>
        <mxCell id="uM3loSz1BCQUuEdLPMse-34" value="Analyzed by&amp;nbsp; Articut" style="text;html=1;align=center;verticalAlign=middle;whiteSpace=wrap;rounded=0;fontSize=18;" parent="1" vertex="1">
          <mxGeometry x="760" y="410" width="370" height="110" as="geometry" />
        </mxCell>
        <mxCell id="uM3loSz1BCQUuEdLPMse-35" value="&lt;span style=&quot;font-size: 16px; font-weight: 400;&quot;&gt;Sinaca Corpus, Li (2017), Liu (1997)&lt;/span&gt;" style="rounded=1;whiteSpace=wrap;html=1;fontStyle=1" parent="1" vertex="1">
          <mxGeometry x="390" y="140" width="280" height="80" as="geometry" />
        </mxCell>
        <mxCell id="uM3loSz1BCQUuEdLPMse-38" value="" style="endArrow=classic;html=1;rounded=0;exitX=0.5;exitY=1;exitDx=0;exitDy=0;" parent="1" edge="1">
          <mxGeometry width="50" height="50" relative="1" as="geometry">
            <mxPoint x="530" y="220" as="sourcePoint" />
            <mxPoint x="529.5" y="280" as="targetPoint" />
          </mxGeometry>
        </mxCell>
        <mxCell id="uM3loSz1BCQUuEdLPMse-41" value="&lt;font style=&quot;font-size: 18px;&quot;&gt;Comparing the new input with the existing patterns via LOKI&amp;nbsp;&amp;nbsp;&lt;/font&gt;" style="text;html=1;align=center;verticalAlign=middle;whiteSpace=wrap;rounded=0;fontSize=18;" parent="1" vertex="1">
          <mxGeometry x="760" y="700" width="370" height="110" as="geometry" />
        </mxCell>
        <mxCell id="uM3loSz1BCQUuEdLPMse-42" value="Ba sentence judgement" style="rounded=1;whiteSpace=wrap;html=1;fontSize=15;" parent="1" vertex="1">
          <mxGeometry x="400" y="840" width="260" height="80" as="geometry" />
        </mxCell>
        <mxCell id="uM3loSz1BCQUuEdLPMse-44" value="" style="endArrow=classic;html=1;rounded=0;exitX=0.5;exitY=1;exitDx=0;exitDy=0;" parent="1" edge="1">
          <mxGeometry width="50" height="50" relative="1" as="geometry">
            <mxPoint x="529.91" y="780" as="sourcePoint" />
            <mxPoint x="529.41" y="840" as="targetPoint" />
          </mxGeometry>
        </mxCell>
      </root>
    </mxGraphModel>
  </diagram>
</mxfile>
